<svg width="60" height="41" viewBox="0 0 60 41" fill="none" xmlns="http://www.w3.org/2000/svg">
<path d="M34.8457 37.3984H15.9609C15.334 37.3984 14.8242 37.9082 14.8242 38.5352C14.8242 39.1621 15.334 39.6719 15.9609 39.6719H34.8457C35.4727 39.6719 35.9824 39.1621 35.9824 38.5352C35.9824 37.9023 35.4727 37.3984 34.8457 37.3984Z" fill="#005BFF"/>
<path d="M53.4902 35.6992V37.9844H56.7187C56.2441 36.6543 54.9785 35.6992 53.4902 35.6992Z" fill="#E6E6E6"/>
<path d="M47.7891 30.1035V4.28125C47.7891 3.33789 47.0215 2.57617 46.084 2.57617H4.72266C3.7793 2.57617 3.01758 3.34375 3.01758 4.28125V30.1035C3.01758 31.0469 3.78516 31.8086 4.72266 31.8086H46.084C47.0273 31.8145 47.7891 31.0469 47.7891 30.1035ZM45.2168 27.6426C45.2168 28.5801 44.4492 29.3477 43.5117 29.3477H7.30078C6.36328 29.3477 5.5957 28.5801 5.5957 27.6426V6.74805C5.5957 5.81055 6.36328 5.04297 7.30078 5.04297H43.5117C44.4492 5.04297 45.2168 5.81055 45.2168 6.74805V27.6426Z" fill="white"/>
<path d="M43.5117 5.04297H7.30078C6.36328 5.04297 5.5957 5.81055 5.5957 6.74805V27.6426C5.5957 28.5801 6.36328 29.3477 7.30078 29.3477H43.5117C44.4492 29.3477 45.2168 28.5801 45.2168 27.6426V6.74805C45.2168 5.81055 44.4492 5.04297 43.5117 5.04297ZM12.8496 6.92969C12.8496 6.83594 12.9258 6.76563 13.0137 6.76563H16.6055C16.6992 6.76563 16.7695 6.8418 16.7695 6.92969V7.95508C16.7695 8.04883 16.6934 8.11914 16.6055 8.11914H13.0137C12.9199 8.11914 12.8496 8.04297 12.8496 7.95508V6.92969ZM11.0742 6.72461C11.4609 6.72461 11.7715 7.03516 11.7715 7.42187C11.7715 7.80859 11.4609 8.11914 11.0742 8.11914C10.6875 8.11914 10.377 7.80859 10.377 7.42187C10.377 7.03516 10.6934 6.72461 11.0742 6.72461ZM8.78906 6.72461C9.17578 6.72461 9.48633 7.03516 9.48633 7.42187C9.48633 7.80859 9.17578 8.11914 8.78906 8.11914C8.40234 8.11914 8.0918 7.80859 8.0918 7.42187C8.0918 7.03516 8.40234 6.72461 8.78906 6.72461ZM22.6934 17.3711C22.6934 21.3438 19.459 24.5781 15.4863 24.5781C11.5137 24.5781 8.2793 21.3438 8.2793 17.3711C8.2793 13.3984 11.5137 10.1641 15.4863 10.1641H16.0547V16.8027H22.6934V17.3711ZM17.4141 15.1035V9.55469C20.4785 9.55469 22.9629 12.0391 22.9629 15.1035H17.4141ZM39.3047 23.8281H31.0605C30.7441 23.8281 30.4922 23.5762 30.4922 23.2598C30.4922 22.9434 30.7441 22.6914 31.0605 22.6914H39.3047C39.6211 22.6914 39.873 22.9434 39.873 23.2598C39.873 23.5703 39.6211 23.8281 39.3047 23.8281ZM39.3047 19.5332H30.7734C30.457 19.5332 30.2051 19.2812 30.2051 18.9648C30.2051 18.6484 30.457 18.3965 30.7734 18.3965H39.3047C39.6211 18.3965 39.873 18.6484 39.873 18.9648C39.873 19.2812 39.6211 19.5332 39.3047 19.5332ZM39.3047 15.2324H27.0234C26.707 15.2324 26.4551 14.9805 26.4551 14.6641C26.4551 14.3477 26.707 14.0957 27.0234 14.0957H39.3105C39.627 14.0957 39.8789 14.3477 39.8789 14.6641C39.8789 14.9805 39.6211 15.2324 39.3047 15.2324ZM39.3047 10.9375H27.0234C26.707 10.9375 26.4551 10.6855 26.4551 10.3691C26.4551 10.0527 26.707 9.80078 27.0234 9.80078H39.3105C39.627 9.80078 39.8789 10.0527 39.8789 10.3691C39.8789 10.6855 39.6211 10.9375 39.3047 10.9375Z" fill="#E6E6E6"/>
<path d="M14.918 11.3301C11.8359 11.6172 9.41602 14.2188 9.41602 17.3711C9.41602 20.7168 12.1406 23.4414 15.4863 23.4414C18.6387 23.4414 21.2402 21.0215 21.5273 17.9395H14.918V11.3301Z" fill="white"/>
<path d="M16.0547 10.1641H15.4863C11.5137 10.1641 8.2793 13.3984 8.2793 17.3711C8.2793 21.3438 11.5137 24.5781 15.4863 24.5781C19.459 24.5781 22.6934 21.3438 22.6934 17.3711V16.8027H16.0547V10.1641ZM21.5273 17.9453C21.2402 21.0273 18.6387 23.4473 15.4863 23.4473C12.1406 23.4473 9.41602 20.7227 9.41602 17.377C9.41602 14.2246 11.8359 11.623 14.918 11.3359V17.9453H21.5273Z" fill="#005BFF"/>
<path d="M17.4141 9.55469V15.1035H22.9629C22.9629 12.0391 20.4785 9.55469 17.4141 9.55469Z" fill="#005BFF"/>
<path d="M8.0918 7.42187C8.0918 7.6068 8.16526 7.78415 8.29602 7.91492C8.42678 8.04568 8.60414 8.11914 8.78906 8.11914C8.97399 8.11914 9.15134 8.04568 9.2821 7.91492C9.41287 7.78415 9.48633 7.6068 9.48633 7.42187C9.48633 7.23695 9.41287 7.0596 9.2821 6.92883C9.15134 6.79807 8.97399 6.72461 8.78906 6.72461C8.60414 6.72461 8.42678 6.79807 8.29602 6.92883C8.16526 7.0596 8.0918 7.23695 8.0918 7.42187Z" fill="white"/>
<path d="M10.377 7.42187C10.377 7.6068 10.4504 7.78415 10.5812 7.91492C10.7119 8.04568 10.8893 8.11914 11.0742 8.11914C11.2591 8.11914 11.4365 8.04568 11.5673 7.91492C11.698 7.78415 11.7715 7.6068 11.7715 7.42187C11.7715 7.23695 11.698 7.0596 11.5673 6.92883C11.4365 6.79807 11.2591 6.72461 11.0742 6.72461C10.8893 6.72461 10.7119 6.79807 10.5812 6.92883C10.4504 7.0596 10.377 7.23695 10.377 7.42187Z" fill="white"/>
<path d="M13.0137 8.11914H16.6055C16.6992 8.11914 16.7695 8.04297 16.7695 7.95508V6.92969C16.7695 6.83594 16.6934 6.76562 16.6055 6.76562H13.0137C12.9199 6.76562 12.8496 6.8418 12.8496 6.92969V7.95508C12.8496 8.04883 12.9258 8.11914 13.0137 8.11914Z" fill="white"/>
<path d="M53.4902 33.4199C50.7363 33.4199 48.4336 35.3828 47.9062 37.9785H41.127C40.4414 37.9785 39.9434 37.8438 39.7676 37.6094C39.6504 37.4512 39.6504 37.1992 39.6504 37.082V34.0879H46.0898C48.2871 34.0879 50.0684 32.3008 50.0684 30.1094V4.28125C50.0684 2.08398 48.2812 0.302734 46.0898 0.302734H4.72266C2.52539 0.302734 0.744141 2.08984 0.744141 4.28125V30.1035C0.744141 32.3008 2.53125 34.082 4.72266 34.082H37.3711V37.082C37.3711 37.3633 37.3711 38.2129 37.9512 38.9805C38.5898 39.8242 39.6563 40.252 41.127 40.252H59.1855V39.1152C59.1855 35.9746 56.6309 33.4199 53.4902 33.4199ZM4.72266 31.8145C3.7793 31.8145 3.01758 31.0469 3.01758 30.1094V4.28125C3.01758 3.33789 3.78516 2.57617 4.72266 2.57617H46.084C47.0273 2.57617 47.7891 3.34375 47.7891 4.28125V30.1035C47.7891 31.0469 47.0215 31.8086 46.084 31.8086H4.72266V31.8145ZM53.4902 37.9785H50.2617C50.7305 36.6484 52.002 35.6934 53.4902 35.6934C54.9785 35.6934 56.25 36.6484 56.7187 37.9785H53.4902Z" fill="#005BFF"/>
<path d="M39.3047 9.80078H27.0234C26.707 9.80078 26.4551 10.0527 26.4551 10.3691C26.4551 10.6855 26.707 10.9375 27.0234 10.9375H39.3105C39.627 10.9375 39.8789 10.6855 39.8789 10.3691C39.8789 10.0527 39.6211 9.80078 39.3047 9.80078Z" fill="#005BFF"/>
<path d="M39.3047 14.0957H27.0234C26.707 14.0957 26.4551 14.3477 26.4551 14.6641C26.4551 14.9805 26.707 15.2324 27.0234 15.2324H39.3105C39.627 15.2324 39.8789 14.9805 39.8789 14.6641C39.8789 14.3477 39.6211 14.0957 39.3047 14.0957ZM39.3047 18.3965H30.7734C30.457 18.3965 30.2051 18.6484 30.2051 18.9648C30.2051 19.2812 30.457 19.5332 30.7734 19.5332H39.3047C39.6211 19.5332 39.873 19.2812 39.873 18.9648C39.873 18.6484 39.6211 18.3965 39.3047 18.3965Z" fill="#06F3FF"/>
<path d="M39.3047 22.6914H31.0605C30.7441 22.6914 30.4922 22.9434 30.4922 23.2598C30.4922 23.5762 30.7441 23.8281 31.0605 23.8281H39.3047C39.6211 23.8281 39.873 23.5762 39.873 23.2598C39.873 22.9434 39.6211 22.6914 39.3047 22.6914Z" fill="#005BFF"/>
<path d="M34.8457 37.3984H15.9609C15.334 37.3984 14.8242 37.9082 14.8242 38.5352C14.8242 39.1621 15.334 39.6719 15.9609 39.6719H34.8457C35.4727 39.6719 35.9824 39.1621 35.9824 38.5352C35.9824 37.9023 35.4727 37.3984 34.8457 37.3984Z" fill="#005BFF"/>
<path d="M53.4902 35.6992V37.9844H56.7187C56.2441 36.6543 54.9785 35.6992 53.4902 35.6992Z" fill="#E6E6E6"/>
<path d="M47.7891 30.1035V4.28125C47.7891 3.33789 47.0215 2.57617 46.084 2.57617H4.72266C3.7793 2.57617 3.01758 3.34375 3.01758 4.28125V30.1035C3.01758 31.0469 3.78516 31.8086 4.72266 31.8086H46.084C47.0273 31.8145 47.7891 31.0469 47.7891 30.1035ZM45.2168 27.6426C45.2168 28.5801 44.4492 29.3477 43.5117 29.3477H7.30078C6.36328 29.3477 5.5957 28.5801 5.5957 27.6426V6.74805C5.5957 5.81055 6.36328 5.04297 7.30078 5.04297H43.5117C44.4492 5.04297 45.2168 5.81055 45.2168 6.74805V27.6426Z" fill="white"/>
<path d="M43.5117 5.04297H7.30078C6.36328 5.04297 5.5957 5.81055 5.5957 6.74805V27.6426C5.5957 28.5801 6.36328 29.3477 7.30078 29.3477H43.5117C44.4492 29.3477 45.2168 28.5801 45.2168 27.6426V6.74805C45.2168 5.81055 44.4492 5.04297 43.5117 5.04297ZM12.8496 6.92969C12.8496 6.83594 12.9258 6.76563 13.0137 6.76563H16.6055C16.6992 6.76563 16.7695 6.8418 16.7695 6.92969V7.95508C16.7695 8.04883 16.6934 8.11914 16.6055 8.11914H13.0137C12.9199 8.11914 12.8496 8.04297 12.8496 7.95508V6.92969ZM11.0742 6.72461C11.4609 6.72461 11.7715 7.03516 11.7715 7.42187C11.7715 7.80859 11.4609 8.11914 11.0742 8.11914C10.6875 8.11914 10.377 7.80859 10.377 7.42187C10.377 7.03516 10.6934 6.72461 11.0742 6.72461ZM8.78906 6.72461C9.17578 6.72461 9.48633 7.03516 9.48633 7.42187C9.48633 7.80859 9.17578 8.11914 8.78906 8.11914C8.40234 8.11914 8.0918 7.80859 8.0918 7.42187C8.0918 7.03516 8.40234 6.72461 8.78906 6.72461ZM22.6934 17.3711C22.6934 21.3438 19.459 24.5781 15.4863 24.5781C11.5137 24.5781 8.2793 21.3438 8.2793 17.3711C8.2793 13.3984 11.5137 10.1641 15.4863 10.1641H16.0547V16.8027H22.6934V17.3711ZM17.4141 15.1035V9.55469C20.4785 9.55469 22.9629 12.0391 22.9629 15.1035H17.4141ZM39.3047 23.8281H31.0605C30.7441 23.8281 30.4922 23.5762 30.4922 23.2598C30.4922 22.9434 30.7441 22.6914 31.0605 22.6914H39.3047C39.6211 22.6914 39.873 22.9434 39.873 23.2598C39.873 23.5703 39.6211 23.8281 39.3047 23.8281ZM39.3047 19.5332H30.7734C30.457 19.5332 30.2051 19.2812 30.2051 18.9648C30.2051 18.6484 30.457 18.3965 30.7734 18.3965H39.3047C39.6211 18.3965 39.873 18.6484 39.873 18.9648C39.873 19.2812 39.6211 19.5332 39.3047 19.5332ZM39.3047 15.2324H27.0234C26.707 15.2324 26.4551 14.9805 26.4551 14.6641C26.4551 14.3477 26.707 14.0957 27.0234 14.0957H39.3105C39.627 14.0957 39.8789 14.3477 39.8789 14.6641C39.8789 14.9805 39.6211 15.2324 39.3047 15.2324ZM39.3047 10.9375H27.0234C26.707 10.9375 26.4551 10.6855 26.4551 10.3691C26.4551 10.0527 26.707 9.80078 27.0234 9.80078H39.3105C39.627 9.80078 39.8789 10.0527 39.8789 10.3691C39.8789 10.6855 39.6211 10.9375 39.3047 10.9375Z" fill="#E6E6E6"/>
<path d="M14.918 11.3301C11.8359 11.6172 9.41602 14.2188 9.41602 17.3711C9.41602 20.7168 12.1406 23.4414 15.4863 23.4414C18.6387 23.4414 21.2402 21.0215 21.5273 17.9395H14.918V11.3301Z" fill="white"/>
<path d="M16.0547 10.1641H15.4863C11.5137 10.1641 8.2793 13.3984 8.2793 17.3711C8.2793 21.3438 11.5137 24.5781 15.4863 24.5781C19.459 24.5781 22.6934 21.3438 22.6934 17.3711V16.8027H16.0547V10.1641ZM21.5273 17.9453C21.2402 21.0273 18.6387 23.4473 15.4863 23.4473C12.1406 23.4473 9.41602 20.7227 9.41602 17.377C9.41602 14.2246 11.8359 11.623 14.918 11.3359V17.9453H21.5273Z" fill="#005BFF"/>
<path d="M17.4141 9.55469V15.1035H22.9629C22.9629 12.0391 20.4785 9.55469 17.4141 9.55469Z" fill="#005BFF"/>
<path d="M8.0918 7.42187C8.0918 7.6068 8.16526 7.78415 8.29602 7.91492C8.42678 8.04568 8.60414 8.11914 8.78906 8.11914C8.97399 8.11914 9.15134 8.04568 9.2821 7.91492C9.41287 7.78415 9.48633 7.6068 9.48633 7.42187C9.48633 7.23695 9.41287 7.0596 9.2821 6.92883C9.15134 6.79807 8.97399 6.72461 8.78906 6.72461C8.60414 6.72461 8.42678 6.79807 8.29602 6.92883C8.16526 7.0596 8.0918 7.23695 8.0918 7.42187Z" fill="white"/>
<path d="M10.377 7.42187C10.377 7.6068 10.4504 7.78415 10.5812 7.91492C10.7119 8.04568 10.8893 8.11914 11.0742 8.11914C11.2591 8.11914 11.4365 8.04568 11.5673 7.91492C11.698 7.78415 11.7715 7.6068 11.7715 7.42187C11.7715 7.23695 11.698 7.0596 11.5673 6.92883C11.4365 6.79807 11.2591 6.72461 11.0742 6.72461C10.8893 6.72461 10.7119 6.79807 10.5812 6.92883C10.4504 7.0596 10.377 7.23695 10.377 7.42187Z" fill="white"/>
<path d="M13.0137 8.11914H16.6055C16.6992 8.11914 16.7695 8.04297 16.7695 7.95508V6.92969C16.7695 6.83594 16.6934 6.76562 16.6055 6.76562H13.0137C12.9199 6.76562 12.8496 6.8418 12.8496 6.92969V7.95508C12.8496 8.04883 12.9258 8.11914 13.0137 8.11914Z" fill="white"/>
<path d="M53.4902 33.4199C50.7363 33.4199 48.4336 35.3828 47.9062 37.9785H41.127C40.4414 37.9785 39.9434 37.8438 39.7676 37.6094C39.6504 37.4512 39.6504 37.1992 39.6504 37.082V34.0879H46.0898C48.2871 34.0879 50.0684 32.3008 50.0684 30.1094V4.28125C50.0684 2.08398 48.2812 0.302734 46.0898 0.302734H4.72266C2.52539 0.302734 0.744141 2.08984 0.744141 4.28125V30.1035C0.744141 32.3008 2.53125 34.082 4.72266 34.082H37.3711V37.082C37.3711 37.3633 37.3711 38.2129 37.9512 38.9805C38.5898 39.8242 39.6563 40.252 41.127 40.252H59.1855V39.1152C59.1855 35.9746 56.6309 33.4199 53.4902 33.4199ZM4.72266 31.8145C3.7793 31.8145 3.01758 31.0469 3.01758 30.1094V4.28125C3.01758 3.33789 3.78516 2.57617 4.72266 2.57617H46.084C47.0273 2.57617 47.7891 3.34375 47.7891 4.28125V30.1035C47.7891 31.0469 47.0215 31.8086 46.084 31.8086H4.72266V31.8145ZM53.4902 37.9785H50.2617C50.7305 36.6484 52.002 35.6934 53.4902 35.6934C54.9785 35.6934 56.25 36.6484 56.7187 37.9785H53.4902Z" fill="#005BFF"/>
<path d="M39.3047 9.80078H27.0234C26.707 9.80078 26.4551 10.0527 26.4551 10.3691C26.4551 10.6855 26.707 10.9375 27.0234 10.9375H39.3105C39.627 10.9375 39.8789 10.6855 39.8789 10.3691C39.8789 10.0527 39.6211 9.80078 39.3047 9.80078Z" fill="#005BFF"/>
<path d="M39.3047 14.0957H27.0234C26.707 14.0957 26.4551 14.3477 26.4551 14.6641C26.4551 14.9805 26.707 15.2324 27.0234 15.2324H39.3105C39.627 15.2324 39.8789 14.9805 39.8789 14.6641C39.8789 14.3477 39.6211 14.0957 39.3047 14.0957ZM39.3047 18.3965H30.7734C30.457 18.3965 30.2051 18.6484 30.2051 18.9648C30.2051 19.2812 30.457 19.5332 30.7734 19.5332H39.3047C39.6211 19.5332 39.873 19.2812 39.873 18.9648C39.873 18.6484 39.6211 18.3965 39.3047 18.3965Z" fill="#06F3FF"/>
<path d="M39.3047 22.6914H31.0605C30.7441 22.6914 30.4922 22.9434 30.4922 23.2598C30.4922 23.5762 30.7441 23.8281 31.0605 23.8281H39.3047C39.6211 23.8281 39.873 23.5762 39.873 23.2598C39.873 22.9434 39.6211 22.6914 39.3047 22.6914Z" fill="#005BFF"/>
<path d="M34.8457 37.3984H15.9609C15.334 37.3984 14.8242 37.9082 14.8242 38.5352C14.8242 39.1621 15.334 39.6719 15.9609 39.6719H34.8457C35.4727 39.6719 35.9824 39.1621 35.9824 38.5352C35.9824 37.9023 35.4727 37.3984 34.8457 37.3984Z" fill="#005BFF"/>
<path d="M53.4902 35.6992V37.9844H56.7187C56.2441 36.6543 54.9785 35.6992 53.4902 35.6992Z" fill="#E6E6E6"/>
<path d="M47.7891 30.1035V4.28125C47.7891 3.33789 47.0215 2.57617 46.084 2.57617H4.72266C3.7793 2.57617 3.01758 3.34375 3.01758 4.28125V30.1035C3.01758 31.0469 3.78516 31.8086 4.72266 31.8086H46.084C47.0273 31.8145 47.7891 31.0469 47.7891 30.1035ZM45.2168 27.6426C45.2168 28.5801 44.4492 29.3477 43.5117 29.3477H7.30078C6.36328 29.3477 5.5957 28.5801 5.5957 27.6426V6.74805C5.5957 5.81055 6.36328 5.04297 7.30078 5.04297H43.5117C44.4492 5.04297 45.2168 5.81055 45.2168 6.74805V27.6426Z" fill="white"/>
<path d="M43.5117 5.04297H7.30078C6.36328 5.04297 5.5957 5.81055 5.5957 6.74805V27.6426C5.5957 28.5801 6.36328 29.3477 7.30078 29.3477H43.5117C44.4492 29.3477 45.2168 28.5801 45.2168 27.6426V6.74805C45.2168 5.81055 44.4492 5.04297 43.5117 5.04297ZM12.8496 6.92969C12.8496 6.83594 12.9258 6.76563 13.0137 6.76563H16.6055C16.6992 6.76563 16.7695 6.8418 16.7695 6.92969V7.95508C16.7695 8.04883 16.6934 8.11914 16.6055 8.11914H13.0137C12.9199 8.11914 12.8496 8.04297 12.8496 7.95508V6.92969ZM11.0742 6.72461C11.4609 6.72461 11.7715 7.03516 11.7715 7.42187C11.7715 7.80859 11.4609 8.11914 11.0742 8.11914C10.6875 8.11914 10.377 7.80859 10.377 7.42187C10.377 7.03516 10.6934 6.72461 11.0742 6.72461ZM8.78906 6.72461C9.17578 6.72461 9.48633 7.03516 9.48633 7.42187C9.48633 7.80859 9.17578 8.11914 8.78906 8.11914C8.40234 8.11914 8.0918 7.80859 8.0918 7.42187C8.0918 7.03516 8.40234 6.72461 8.78906 6.72461ZM22.6934 17.3711C22.6934 21.3438 19.459 24.5781 15.4863 24.5781C11.5137 24.5781 8.2793 21.3438 8.2793 17.3711C8.2793 13.3984 11.5137 10.1641 15.4863 10.1641H16.0547V16.8027H22.6934V17.3711ZM17.4141 15.1035V9.55469C20.4785 9.55469 22.9629 12.0391 22.9629 15.1035H17.4141ZM39.3047 23.8281H31.0605C30.7441 23.8281 30.4922 23.5762 30.4922 23.2598C30.4922 22.9434 30.7441 22.6914 31.0605 22.6914H39.3047C39.6211 22.6914 39.873 22.9434 39.873 23.2598C39.873 23.5703 39.6211 23.8281 39.3047 23.8281ZM39.3047 19.5332H30.7734C30.457 19.5332 30.2051 19.2812 30.2051 18.9648C30.2051 18.6484 30.457 18.3965 30.7734 18.3965H39.3047C39.6211 18.3965 39.873 18.6484 39.873 18.9648C39.873 19.2812 39.6211 19.5332 39.3047 19.5332ZM39.3047 15.2324H27.0234C26.707 15.2324 26.4551 14.9805 26.4551 14.6641C26.4551 14.3477 26.707 14.0957 27.0234 14.0957H39.3105C39.627 14.0957 39.8789 14.3477 39.8789 14.6641C39.8789 14.9805 39.6211 15.2324 39.3047 15.2324ZM39.3047 10.9375H27.0234C26.707 10.9375 26.4551 10.6855 26.4551 10.3691C26.4551 10.0527 26.707 9.80078 27.0234 9.80078H39.3105C39.627 9.80078 39.8789 10.0527 39.8789 10.3691C39.8789 10.6855 39.6211 10.9375 39.3047 10.9375Z" fill="#E6E6E6"/>
<path d="M14.918 11.3301C11.8359 11.6172 9.41602 14.2188 9.41602 17.3711C9.41602 20.7168 12.1406 23.4414 15.4863 23.4414C18.6387 23.4414 21.2402 21.0215 21.5273 17.9395H14.918V11.3301Z" fill="white"/>
<path d="M16.0547 10.1641H15.4863C11.5137 10.1641 8.2793 13.3984 8.2793 17.3711C8.2793 21.3438 11.5137 24.5781 15.4863 24.5781C19.459 24.5781 22.6934 21.3438 22.6934 17.3711V16.8027H16.0547V10.1641ZM21.5273 17.9453C21.2402 21.0273 18.6387 23.4473 15.4863 23.4473C12.1406 23.4473 9.41602 20.7227 9.41602 17.377C9.41602 14.2246 11.8359 11.623 14.918 11.3359V17.9453H21.5273Z" fill="#005BFF"/>
<path d="M17.4141 9.55469V15.1035H22.9629C22.9629 12.0391 20.4785 9.55469 17.4141 9.55469Z" fill="#005BFF"/>
<path d="M8.0918 7.42187C8.0918 7.6068 8.16526 7.78415 8.29602 7.91492C8.42678 8.04568 8.60414 8.11914 8.78906 8.11914C8.97399 8.11914 9.15134 8.04568 9.2821 7.91492C9.41287 7.78415 9.48633 7.6068 9.48633 7.42187C9.48633 7.23695 9.41287 7.0596 9.2821 6.92883C9.15134 6.79807 8.97399 6.72461 8.78906 6.72461C8.60414 6.72461 8.42678 6.79807 8.29602 6.92883C8.16526 7.0596 8.0918 7.23695 8.0918 7.42187Z" fill="white"/>
<path d="M10.377 7.42187C10.377 7.6068 10.4504 7.78415 10.5812 7.91492C10.7119 8.04568 10.8893 8.11914 11.0742 8.11914C11.2591 8.11914 11.4365 8.04568 11.5673 7.91492C11.698 7.78415 11.7715 7.6068 11.7715 7.42187C11.7715 7.23695 11.698 7.0596 11.5673 6.92883C11.4365 6.79807 11.2591 6.72461 11.0742 6.72461C10.8893 6.72461 10.7119 6.79807 10.5812 6.92883C10.4504 7.0596 10.377 7.23695 10.377 7.42187Z" fill="white"/>
<path d="M13.0137 8.11914H16.6055C16.6992 8.11914 16.7695 8.04297 16.7695 7.95508V6.92969C16.7695 6.83594 16.6934 6.76562 16.6055 6.76562H13.0137C12.9199 6.76562 12.8496 6.8418 12.8496 6.92969V7.95508C12.8496 8.04883 12.9258 8.11914 13.0137 8.11914Z" fill="white"/>
<path d="M53.4902 33.4199C50.7363 33.4199 48.4336 35.3828 47.9062 37.9785H41.127C40.4414 37.9785 39.9434 37.8438 39.7676 37.6094C39.6504 37.4512 39.6504 37.1992 39.6504 37.082V34.0879H46.0898C48.2871 34.0879 50.0684 32.3008 50.0684 30.1094V4.28125C50.0684 2.08398 48.2812 0.302734 46.0898 0.302734H4.72266C2.52539 0.302734 0.744141 2.08984 0.744141 4.28125V30.1035C0.744141 32.3008 2.53125 34.082 4.72266 34.082H37.3711V37.082C37.3711 37.3633 37.3711 38.2129 37.9512 38.9805C38.5898 39.8242 39.6563 40.252 41.127 40.252H59.1855V39.1152C59.1855 35.9746 56.6309 33.4199 53.4902 33.4199ZM4.72266 31.8145C3.7793 31.8145 3.01758 31.0469 3.01758 30.1094V4.28125C3.01758 3.33789 3.78516 2.57617 4.72266 2.57617H46.084C47.0273 2.57617 47.7891 3.34375 47.7891 4.28125V30.1035C47.7891 31.0469 47.0215 31.8086 46.084 31.8086H4.72266V31.8145ZM53.4902 37.9785H50.2617C50.7305 36.6484 52.002 35.6934 53.4902 35.6934C54.9785 35.6934 56.25 36.6484 56.7187 37.9785H53.4902Z" fill="#005BFF"/>
<path d="M39.3047 9.80078H27.0234C26.707 9.80078 26.4551 10.0527 26.4551 10.3691C26.4551 10.6855 26.707 10.9375 27.0234 10.9375H39.3105C39.627 10.9375 39.8789 10.6855 39.8789 10.3691C39.8789 10.0527 39.6211 9.80078 39.3047 9.80078Z" fill="#005BFF"/>
<path d="M39.3047 14.0957H27.0234C26.707 14.0957 26.4551 14.3477 26.4551 14.6641C26.4551 14.9805 26.707 15.2324 27.0234 15.2324H39.3105C39.627 15.2324 39.8789 14.9805 39.8789 14.6641C39.8789 14.3477 39.6211 14.0957 39.3047 14.0957ZM39.3047 18.3965H30.7734C30.457 18.3965 30.2051 18.6484 30.2051 18.9648C30.2051 19.2812 30.457 19.5332 30.7734 19.5332H39.3047C39.6211 19.5332 39.873 19.2812 39.873 18.9648C39.873 18.6484 39.6211 18.3965 39.3047 18.3965Z" fill="#06F3FF"/>
<path d="M39.3047 22.6914H31.0605C30.7441 22.6914 30.4922 22.9434 30.4922 23.2598C30.4922 23.5762 30.7441 23.8281 31.0605 23.8281H39.3047C39.6211 23.8281 39.873 23.5762 39.873 23.2598C39.873 22.9434 39.6211 22.6914 39.3047 22.6914Z" fill="#005BFF"/>
<path d="M34.8457 37.3984H15.9609C15.334 37.3984 14.8242 37.9082 14.8242 38.5352C14.8242 39.1621 15.334 39.6719 15.9609 39.6719H34.8457C35.4727 39.6719 35.9824 39.1621 35.9824 38.5352C35.9824 37.9023 35.4727 37.3984 34.8457 37.3984Z" fill="#005BFF"/>
<path d="M53.4902 35.6992V37.9844H56.7187C56.2441 36.6543 54.9785 35.6992 53.4902 35.6992Z" fill="#E6E6E6"/>
<path d="M47.7891 30.1035V4.28125C47.7891 3.33789 47.0215 2.57617 46.084 2.57617H4.72266C3.7793 2.57617 3.01758 3.34375 3.01758 4.28125V30.1035C3.01758 31.0469 3.78516 31.8086 4.72266 31.8086H46.084C47.0273 31.8145 47.7891 31.0469 47.7891 30.1035ZM45.2168 27.6426C45.2168 28.5801 44.4492 29.3477 43.5117 29.3477H7.30078C6.36328 29.3477 5.5957 28.5801 5.5957 27.6426V6.74805C5.5957 5.81055 6.36328 5.04297 7.30078 5.04297H43.5117C44.4492 5.04297 45.2168 5.81055 45.2168 6.74805V27.6426Z" fill="white"/>
<path d="M43.5117 5.04297H7.30078C6.36328 5.04297 5.5957 5.81055 5.5957 6.74805V27.6426C5.5957 28.5801 6.36328 29.3477 7.30078 29.3477H43.5117C44.4492 29.3477 45.2168 28.5801 45.2168 27.6426V6.74805C45.2168 5.81055 44.4492 5.04297 43.5117 5.04297ZM12.8496 6.92969C12.8496 6.83594 12.9258 6.76563 13.0137 6.76563H16.6055C16.6992 6.76563 16.7695 6.8418 16.7695 6.92969V7.95508C16.7695 8.04883 16.6934 8.11914 16.6055 8.11914H13.0137C12.9199 8.11914 12.8496 8.04297 12.8496 7.95508V6.92969ZM11.0742 6.72461C11.4609 6.72461 11.7715 7.03516 11.7715 7.42187C11.7715 7.80859 11.4609 8.11914 11.0742 8.11914C10.6875 8.11914 10.377 7.80859 10.377 7.42187C10.377 7.03516 10.6934 6.72461 11.0742 6.72461ZM8.78906 6.72461C9.17578 6.72461 9.48633 7.03516 9.48633 7.42187C9.48633 7.80859 9.17578 8.11914 8.78906 8.11914C8.40234 8.11914 8.0918 7.80859 8.0918 7.42187C8.0918 7.03516 8.40234 6.72461 8.78906 6.72461ZM22.6934 17.3711C22.6934 21.3438 19.459 24.5781 15.4863 24.5781C11.5137 24.5781 8.2793 21.3438 8.2793 17.3711C8.2793 13.3984 11.5137 10.1641 15.4863 10.1641H16.0547V16.8027H22.6934V17.3711ZM17.4141 15.1035V9.55469C20.4785 9.55469 22.9629 12.0391 22.9629 15.1035H17.4141ZM39.3047 23.8281H31.0605C30.7441 23.8281 30.4922 23.5762 30.4922 23.2598C30.4922 22.9434 30.7441 22.6914 31.0605 22.6914H39.3047C39.6211 22.6914 39.873 22.9434 39.873 23.2598C39.873 23.5703 39.6211 23.8281 39.3047 23.8281ZM39.3047 19.5332H30.7734C30.457 19.5332 30.2051 19.2812 30.2051 18.9648C30.2051 18.6484 30.457 18.3965 30.7734 18.3965H39.3047C39.6211 18.3965 39.873 18.6484 39.873 18.9648C39.873 19.2812 39.6211 19.5332 39.3047 19.5332ZM39.3047 15.2324H27.0234C26.707 15.2324 26.4551 14.9805 26.4551 14.6641C26.4551 14.3477 26.707 14.0957 27.0234 14.0957H39.3105C39.627 14.0957 39.8789 14.3477 39.8789 14.6641C39.8789 14.9805 39.6211 15.2324 39.3047 15.2324ZM39.3047 10.9375H27.0234C26.707 10.9375 26.4551 10.6855 26.4551 10.3691C26.4551 10.0527 26.707 9.80078 27.0234 9.80078H39.3105C39.627 9.80078 39.8789 10.0527 39.8789 10.3691C39.8789 10.6855 39.6211 10.9375 39.3047 10.9375Z" fill="#E6E6E6"/>
<path d="M14.918 11.3301C11.8359 11.6172 9.41602 14.2188 9.41602 17.3711C9.41602 20.7168 12.1406 23.4414 15.4863 23.4414C18.6387 23.4414 21.2402 21.0215 21.5273 17.9395H14.918V11.3301Z" fill="white"/>
<path d="M16.0547 10.1641H15.4863C11.5137 10.1641 8.2793 13.3984 8.2793 17.3711C8.2793 21.3438 11.5137 24.5781 15.4863 24.5781C19.459 24.5781 22.6934 21.3438 22.6934 17.3711V16.8027H16.0547V10.1641ZM21.5273 17.9453C21.2402 21.0273 18.6387 23.4473 15.4863 23.4473C12.1406 23.4473 9.41602 20.7227 9.41602 17.377C9.41602 14.2246 11.8359 11.623 14.918 11.3359V17.9453H21.5273Z" fill="#005BFF"/>
<path d="M17.4141 9.55469V15.1035H22.9629C22.9629 12.0391 20.4785 9.55469 17.4141 9.55469Z" fill="#005BFF"/>
<path d="M8.0918 7.42187C8.0918 7.6068 8.16526 7.78415 8.29602 7.91492C8.42678 8.04568 8.60414 8.11914 8.78906 8.11914C8.97399 8.11914 9.15134 8.04568 9.2821 7.91492C9.41287 7.78415 9.48633 7.6068 9.48633 7.42187C9.48633 7.23695 9.41287 7.0596 9.2821 6.92883C9.15134 6.79807 8.97399 6.72461 8.78906 6.72461C8.60414 6.72461 8.42678 6.79807 8.29602 6.92883C8.16526 7.0596 8.0918 7.23695 8.0918 7.42187Z" fill="white"/>
<path d="M10.377 7.42187C10.377 7.6068 10.4504 7.78415 10.5812 7.91492C10.7119 8.04568 10.8893 8.11914 11.0742 8.11914C11.2591 8.11914 11.4365 8.04568 11.5673 7.91492C11.698 7.78415 11.7715 7.6068 11.7715 7.42187C11.7715 7.23695 11.698 7.0596 11.5673 6.92883C11.4365 6.79807 11.2591 6.72461 11.0742 6.72461C10.8893 6.72461 10.7119 6.79807 10.5812 6.92883C10.4504 7.0596 10.377 7.23695 10.377 7.42187Z" fill="white"/>
<path d="M13.0137 8.11914H16.6055C16.6992 8.11914 16.7695 8.04297 16.7695 7.95508V6.92969C16.7695 6.83594 16.6934 6.76562 16.6055 6.76562H13.0137C12.9199 6.76562 12.8496 6.8418 12.8496 6.92969V7.95508C12.8496 8.04883 12.9258 8.11914 13.0137 8.11914Z" fill="white"/>
<path d="M53.4902 33.4199C50.7363 33.4199 48.4336 35.3828 47.9062 37.9785H41.127C40.4414 37.9785 39.9434 37.8438 39.7676 37.6094C39.6504 37.4512 39.6504 37.1992 39.6504 37.082V34.0879H46.0898C48.2871 34.0879 50.0684 32.3008 50.0684 30.1094V4.28125C50.0684 2.08398 48.2812 0.302734 46.0898 0.302734H4.72266C2.52539 0.302734 0.744141 2.08984 0.744141 4.28125V30.1035C0.744141 32.3008 2.53125 34.082 4.72266 34.082H37.3711V37.082C37.3711 37.3633 37.3711 38.2129 37.9512 38.9805C38.5898 39.8242 39.6563 40.252 41.127 40.252H59.1855V39.1152C59.1855 35.9746 56.6309 33.4199 53.4902 33.4199ZM4.72266 31.8145C3.7793 31.8145 3.01758 31.0469 3.01758 30.1094V4.28125C3.01758 3.33789 3.78516 2.57617 4.72266 2.57617H46.084C47.0273 2.57617 47.7891 3.34375 47.7891 4.28125V30.1035C47.7891 31.0469 47.0215 31.8086 46.084 31.8086H4.72266V31.8145ZM53.4902 37.9785H50.2617C50.7305 36.6484 52.002 35.6934 53.4902 35.6934C54.9785 35.6934 56.25 36.6484 56.7187 37.9785H53.4902Z" fill="#005BFF"/>
<path d="M39.3047 9.80078H27.0234C26.707 9.80078 26.4551 10.0527 26.4551 10.3691C26.4551 10.6855 26.707 10.9375 27.0234 10.9375H39.3105C39.627 10.9375 39.8789 10.6855 39.8789 10.3691C39.8789 10.0527 39.6211 9.80078 39.3047 9.80078Z" fill="#005BFF"/>
<path d="M39.3047 14.0957H27.0234C26.707 14.0957 26.4551 14.3477 26.4551 14.6641C26.4551 14.9805 26.707 15.2324 27.0234 15.2324H39.3105C39.627 15.2324 39.8789 14.9805 39.8789 14.6641C39.8789 14.3477 39.6211 14.0957 39.3047 14.0957ZM39.3047 18.3965H30.7734C30.457 18.3965 30.2051 18.6484 30.2051 18.9648C30.2051 19.2812 30.457 19.5332 30.7734 19.5332H39.3047C39.6211 19.5332 39.873 19.2812 39.873 18.9648C39.873 18.6484 39.6211 18.3965 39.3047 18.3965Z" fill="#06F3FF"/>
<path d="M39.3047 22.6914H31.0605C30.7441 22.6914 30.4922 22.9434 30.4922 23.2598C30.4922 23.5762 30.7441 23.8281 31.0605 23.8281H39.3047C39.6211 23.8281 39.873 23.5762 39.873 23.2598C39.873 22.9434 39.6211 22.6914 39.3047 22.6914Z" fill="#005BFF"/>
<path d="M34.8457 37.3984H15.9609C15.334 37.3984 14.8242 37.9082 14.8242 38.5352C14.8242 39.1621 15.334 39.6719 15.9609 39.6719H34.8457C35.4727 39.6719 35.9824 39.1621 35.9824 38.5352C35.9824 37.9023 35.4727 37.3984 34.8457 37.3984Z" fill="#005BFF"/>
<path d="M53.4902 35.6992V37.9844H56.7187C56.2441 36.6543 54.9785 35.6992 53.4902 35.6992Z" fill="#E6E6E6"/>
<path d="M47.7891 30.1035V4.28125C47.7891 3.33789 47.0215 2.57617 46.084 2.57617H4.72266C3.7793 2.57617 3.01758 3.34375 3.01758 4.28125V30.1035C3.01758 31.0469 3.78516 31.8086 4.72266 31.8086H46.084C47.0273 31.8145 47.7891 31.0469 47.7891 30.1035ZM45.2168 27.6426C45.2168 28.5801 44.4492 29.3477 43.5117 29.3477H7.30078C6.36328 29.3477 5.5957 28.5801 5.5957 27.6426V6.74805C5.5957 5.81055 6.36328 5.04297 7.30078 5.04297H43.5117C44.4492 5.04297 45.2168 5.81055 45.2168 6.74805V27.6426Z" fill="white"/>
<path d="M43.5117 5.04297H7.30078C6.36328 5.04297 5.5957 5.81055 5.5957 6.74805V27.6426C5.5957 28.5801 6.36328 29.3477 7.30078 29.3477H43.5117C44.4492 29.3477 45.2168 28.5801 45.2168 27.6426V6.74805C45.2168 5.81055 44.4492 5.04297 43.5117 5.04297ZM12.8496 6.92969C12.8496 6.83594 12.9258 6.76563 13.0137 6.76563H16.6055C16.6992 6.76563 16.7695 6.8418 16.7695 6.92969V7.95508C16.7695 8.04883 16.6934 8.11914 16.6055 8.11914H13.0137C12.9199 8.11914 12.8496 8.04297 12.8496 7.95508V6.92969ZM11.0742 6.72461C11.4609 6.72461 11.7715 7.03516 11.7715 7.42187C11.7715 7.80859 11.4609 8.11914 11.0742 8.11914C10.6875 8.11914 10.377 7.80859 10.377 7.42187C10.377 7.03516 10.6934 6.72461 11.0742 6.72461ZM8.78906 6.72461C9.17578 6.72461 9.48633 7.03516 9.48633 7.42187C9.48633 7.80859 9.17578 8.11914 8.78906 8.11914C8.40234 8.11914 8.0918 7.80859 8.0918 7.42187C8.0918 7.03516 8.40234 6.72461 8.78906 6.72461ZM22.6934 17.3711C22.6934 21.3438 19.459 24.5781 15.4863 24.5781C11.5137 24.5781 8.2793 21.3438 8.2793 17.3711C8.2793 13.3984 11.5137 10.1641 15.4863 10.1641H16.0547V16.8027H22.6934V17.3711ZM17.4141 15.1035V9.55469C20.4785 9.55469 22.9629 12.0391 22.9629 15.1035H17.4141ZM39.3047 23.8281H31.0605C30.7441 23.8281 30.4922 23.5762 30.4922 23.2598C30.4922 22.9434 30.7441 22.6914 31.0605 22.6914H39.3047C39.6211 22.6914 39.873 22.9434 39.873 23.2598C39.873 23.5703 39.6211 23.8281 39.3047 23.8281ZM39.3047 19.5332H30.7734C30.457 19.5332 30.2051 19.2812 30.2051 18.9648C30.2051 18.6484 30.457 18.3965 30.7734 18.3965H39.3047C39.6211 18.3965 39.873 18.6484 39.873 18.9648C39.873 19.2812 39.6211 19.5332 39.3047 19.5332ZM39.3047 15.2324H27.0234C26.707 15.2324 26.4551 14.9805 26.4551 14.6641C26.4551 14.3477 26.707 14.0957 27.0234 14.0957H39.3105C39.627 14.0957 39.8789 14.3477 39.8789 14.6641C39.8789 14.9805 39.6211 15.2324 39.3047 15.2324ZM39.3047 10.9375H27.0234C26.707 10.9375 26.4551 10.6855 26.4551 10.3691C26.4551 10.0527 26.707 9.80078 27.0234 9.80078H39.3105C39.627 9.80078 39.8789 10.0527 39.8789 10.3691C39.8789 10.6855 39.6211 10.9375 39.3047 10.9375Z" fill="#E6E6E6"/>
<path d="M14.918 11.3301C11.8359 11.6172 9.41602 14.2188 9.41602 17.3711C9.41602 20.7168 12.1406 23.4414 15.4863 23.4414C18.6387 23.4414 21.2402 21.0215 21.5273 17.9395H14.918V11.3301Z" fill="white"/>
<path d="M16.0547 10.1641H15.4863C11.5137 10.1641 8.2793 13.3984 8.2793 17.3711C8.2793 21.3438 11.5137 24.5781 15.4863 24.5781C19.459 24.5781 22.6934 21.3438 22.6934 17.3711V16.8027H16.0547V10.1641ZM21.5273 17.9453C21.2402 21.0273 18.6387 23.4473 15.4863 23.4473C12.1406 23.4473 9.41602 20.7227 9.41602 17.377C9.41602 14.2246 11.8359 11.623 14.918 11.3359V17.9453H21.5273Z" fill="#005BFF"/>
<path d="M17.4141 9.55469V15.1035H22.9629C22.9629 12.0391 20.4785 9.55469 17.4141 9.55469Z" fill="#005BFF"/>
<path d="M8.0918 7.42187C8.0918 7.6068 8.16526 7.78415 8.29602 7.91492C8.42678 8.04568 8.60414 8.11914 8.78906 8.11914C8.97399 8.11914 9.15134 8.04568 9.2821 7.91492C9.41287 7.78415 9.48633 7.6068 9.48633 7.42187C9.48633 7.23695 9.41287 7.0596 9.2821 6.92883C9.15134 6.79807 8.97399 6.72461 8.78906 6.72461C8.60414 6.72461 8.42678 6.79807 8.29602 6.92883C8.16526 7.0596 8.0918 7.23695 8.0918 7.42187Z" fill="white"/>
<path d="M10.377 7.42187C10.377 7.6068 10.4504 7.78415 10.5812 7.91492C10.7119 8.04568 10.8893 8.11914 11.0742 8.11914C11.2591 8.11914 11.4365 8.04568 11.5673 7.91492C11.698 7.78415 11.7715 7.6068 11.7715 7.42187C11.7715 7.23695 11.698 7.0596 11.5673 6.92883C11.4365 6.79807 11.2591 6.72461 11.0742 6.72461C10.8893 6.72461 10.7119 6.79807 10.5812 6.92883C10.4504 7.0596 10.377 7.23695 10.377 7.42187Z" fill="white"/>
<path d="M13.0137 8.11914H16.6055C16.6992 8.11914 16.7695 8.04297 16.7695 7.95508V6.92969C16.7695 6.83594 16.6934 6.76562 16.6055 6.76562H13.0137C12.9199 6.76562 12.8496 6.8418 12.8496 6.92969V7.95508C12.8496 8.04883 12.9258 8.11914 13.0137 8.11914Z" fill="white"/>
<path d="M53.4902 33.4199C50.7363 33.4199 48.4336 35.3828 47.9062 37.9785H41.127C40.4414 37.9785 39.9434 37.8438 39.7676 37.6094C39.6504 37.4512 39.6504 37.1992 39.6504 37.082V34.0879H46.0898C48.2871 34.0879 50.0684 32.3008 50.0684 30.1094V4.28125C50.0684 2.08398 48.2812 0.302734 46.0898 0.302734H4.72266C2.52539 0.302734 0.744141 2.08984 0.744141 4.28125V30.1035C0.744141 32.3008 2.53125 34.082 4.72266 34.082H37.3711V37.082C37.3711 37.3633 37.3711 38.2129 37.9512 38.9805C38.5898 39.8242 39.6563 40.252 41.127 40.252H59.1855V39.1152C59.1855 35.9746 56.6309 33.4199 53.4902 33.4199ZM4.72266 31.8145C3.7793 31.8145 3.01758 31.0469 3.01758 30.1094V4.28125C3.01758 3.33789 3.78516 2.57617 4.72266 2.57617H46.084C47.0273 2.57617 47.7891 3.34375 47.7891 4.28125V30.1035C47.7891 31.0469 47.0215 31.8086 46.084 31.8086H4.72266V31.8145ZM53.4902 37.9785H50.2617C50.7305 36.6484 52.002 35.6934 53.4902 35.6934C54.9785 35.6934 56.25 36.6484 56.7187 37.9785H53.4902Z" fill="#005BFF"/>
<path d="M39.3047 9.80078H27.0234C26.707 9.80078 26.4551 10.0527 26.4551 10.3691C26.4551 10.6855 26.707 10.9375 27.0234 10.9375H39.3105C39.627 10.9375 39.8789 10.6855 39.8789 10.3691C39.8789 10.0527 39.6211 9.80078 39.3047 9.80078Z" fill="#005BFF"/>
<path d="M39.3047 14.0957H27.0234C26.707 14.0957 26.4551 14.3477 26.4551 14.6641C26.4551 14.9805 26.707 15.2324 27.0234 15.2324H39.3105C39.627 15.2324 39.8789 14.9805 39.8789 14.6641C39.8789 14.3477 39.6211 14.0957 39.3047 14.0957ZM39.3047 18.3965H30.7734C30.457 18.3965 30.2051 18.6484 30.2051 18.9648C30.2051 19.2812 30.457 19.5332 30.7734 19.5332H39.3047C39.6211 19.5332 39.873 19.2812 39.873 18.9648C39.873 18.6484 39.6211 18.3965 39.3047 18.3965Z" fill="#06F3FF"/>
<path d="M39.3047 22.6914H31.0605C30.7441 22.6914 30.4922 22.9434 30.4922 23.2598C30.4922 23.5762 30.7441 23.8281 31.0605 23.8281H39.3047C39.6211 23.8281 39.873 23.5762 39.873 23.2598C39.873 22.9434 39.6211 22.6914 39.3047 22.6914Z" fill="#005BFF"/>
<path d="M34.8457 37.3984H15.9609C15.334 37.3984 14.8242 37.9082 14.8242 38.5352C14.8242 39.1621 15.334 39.6719 15.9609 39.6719H34.8457C35.4727 39.6719 35.9824 39.1621 35.9824 38.5352C35.9824 37.9023 35.4727 37.3984 34.8457 37.3984Z" fill="#005BFF"/>
<path d="M53.4902 35.6992V37.9844H56.7187C56.2441 36.6543 54.9785 35.6992 53.4902 35.6992Z" fill="#E6E6E6"/>
<path d="M47.7891 30.1035V4.28125C47.7891 3.33789 47.0215 2.57617 46.084 2.57617H4.72266C3.7793 2.57617 3.01758 3.34375 3.01758 4.28125V30.1035C3.01758 31.0469 3.78516 31.8086 4.72266 31.8086H46.084C47.0273 31.8145 47.7891 31.0469 47.7891 30.1035ZM45.2168 27.6426C45.2168 28.5801 44.4492 29.3477 43.5117 29.3477H7.30078C6.36328 29.3477 5.5957 28.5801 5.5957 27.6426V6.74805C5.5957 5.81055 6.36328 5.04297 7.30078 5.04297H43.5117C44.4492 5.04297 45.2168 5.81055 45.2168 6.74805V27.6426Z" fill="white"/>
<path d="M43.5117 5.04297H7.30078C6.36328 5.04297 5.5957 5.81055 5.5957 6.74805V27.6426C5.5957 28.5801 6.36328 29.3477 7.30078 29.3477H43.5117C44.4492 29.3477 45.2168 28.5801 45.2168 27.6426V6.74805C45.2168 5.81055 44.4492 5.04297 43.5117 5.04297ZM12.8496 6.92969C12.8496 6.83594 12.9258 6.76563 13.0137 6.76563H16.6055C16.6992 6.76563 16.7695 6.8418 16.7695 6.92969V7.95508C16.7695 8.04883 16.6934 8.11914 16.6055 8.11914H13.0137C12.9199 8.11914 12.8496 8.04297 12.8496 7.95508V6.92969ZM11.0742 6.72461C11.4609 6.72461 11.7715 7.03516 11.7715 7.42187C11.7715 7.80859 11.4609 8.11914 11.0742 8.11914C10.6875 8.11914 10.377 7.80859 10.377 7.42187C10.377 7.03516 10.6934 6.72461 11.0742 6.72461ZM8.78906 6.72461C9.17578 6.72461 9.48633 7.03516 9.48633 7.42187C9.48633 7.80859 9.17578 8.11914 8.78906 8.11914C8.40234 8.11914 8.0918 7.80859 8.0918 7.42187C8.0918 7.03516 8.40234 6.72461 8.78906 6.72461ZM22.6934 17.3711C22.6934 21.3438 19.459 24.5781 15.4863 24.5781C11.5137 24.5781 8.2793 21.3438 8.2793 17.3711C8.2793 13.3984 11.5137 10.1641 15.4863 10.1641H16.0547V16.8027H22.6934V17.3711ZM17.4141 15.1035V9.55469C20.4785 9.55469 22.9629 12.0391 22.9629 15.1035H17.4141ZM39.3047 23.8281H31.0605C30.7441 23.8281 30.4922 23.5762 30.4922 23.2598C30.4922 22.9434 30.7441 22.6914 31.0605 22.6914H39.3047C39.6211 22.6914 39.873 22.9434 39.873 23.2598C39.873 23.5703 39.6211 23.8281 39.3047 23.8281ZM39.3047 19.5332H30.7734C30.457 19.5332 30.2051 19.2812 30.2051 18.9648C30.2051 18.6484 30.457 18.3965 30.7734 18.3965H39.3047C39.6211 18.3965 39.873 18.6484 39.873 18.9648C39.873 19.2812 39.6211 19.5332 39.3047 19.5332ZM39.3047 15.2324H27.0234C26.707 15.2324 26.4551 14.9805 26.4551 14.6641C26.4551 14.3477 26.707 14.0957 27.0234 14.0957H39.3105C39.627 14.0957 39.8789 14.3477 39.8789 14.6641C39.8789 14.9805 39.6211 15.2324 39.3047 15.2324ZM39.3047 10.9375H27.0234C26.707 10.9375 26.4551 10.6855 26.4551 10.3691C26.4551 10.0527 26.707 9.80078 27.0234 9.80078H39.3105C39.627 9.80078 39.8789 10.0527 39.8789 10.3691C39.8789 10.6855 39.6211 10.9375 39.3047 10.9375Z" fill="#E6E6E6"/>
<path d="M14.918 11.3301C11.8359 11.6172 9.41602 14.2188 9.41602 17.3711C9.41602 20.7168 12.1406 23.4414 15.4863 23.4414C18.6387 23.4414 21.2402 21.0215 21.5273 17.9395H14.918V11.3301Z" fill="white"/>
<path d="M16.0547 10.1641H15.4863C11.5137 10.1641 8.2793 13.3984 8.2793 17.3711C8.2793 21.3438 11.5137 24.5781 15.4863 24.5781C19.459 24.5781 22.6934 21.3438 22.6934 17.3711V16.8027H16.0547V10.1641ZM21.5273 17.9453C21.2402 21.0273 18.6387 23.4473 15.4863 23.4473C12.1406 23.4473 9.41602 20.7227 9.41602 17.377C9.41602 14.2246 11.8359 11.623 14.918 11.3359V17.9453H21.5273Z" fill="#005BFF"/>
<path d="M17.4141 9.55469V15.1035H22.9629C22.9629 12.0391 20.4785 9.55469 17.4141 9.55469Z" fill="#005BFF"/>
<path d="M8.0918 7.42187C8.0918 7.6068 8.16526 7.78415 8.29602 7.91492C8.42678 8.04568 8.60414 8.11914 8.78906 8.11914C8.97399 8.11914 9.15134 8.04568 9.2821 7.91492C9.41287 7.78415 9.48633 7.6068 9.48633 7.42187C9.48633 7.23695 9.41287 7.0596 9.2821 6.92883C9.15134 6.79807 8.97399 6.72461 8.78906 6.72461C8.60414 6.72461 8.42678 6.79807 8.29602 6.92883C8.16526 7.0596 8.0918 7.23695 8.0918 7.42187Z" fill="white"/>
<path d="M10.377 7.42187C10.377 7.6068 10.4504 7.78415 10.5812 7.91492C10.7119 8.04568 10.8893 8.11914 11.0742 8.11914C11.2591 8.11914 11.4365 8.04568 11.5673 7.91492C11.698 7.78415 11.7715 7.6068 11.7715 7.42187C11.7715 7.23695 11.698 7.0596 11.5673 6.92883C11.4365 6.79807 11.2591 6.72461 11.0742 6.72461C10.8893 6.72461 10.7119 6.79807 10.5812 6.92883C10.4504 7.0596 10.377 7.23695 10.377 7.42187Z" fill="white"/>
<path d="M13.0137 8.11914H16.6055C16.6992 8.11914 16.7695 8.04297 16.7695 7.95508V6.92969C16.7695 6.83594 16.6934 6.76562 16.6055 6.76562H13.0137C12.9199 6.76562 12.8496 6.8418 12.8496 6.92969V7.95508C12.8496 8.04883 12.9258 8.11914 13.0137 8.11914Z" fill="white"/>
<path d="M53.4902 33.4199C50.7363 33.4199 48.4336 35.3828 47.9062 37.9785H41.127C40.4414 37.9785 39.9434 37.8438 39.7676 37.6094C39.6504 37.4512 39.6504 37.1992 39.6504 37.082V34.0879H46.0898C48.2871 34.0879 50.0684 32.3008 50.0684 30.1094V4.28125C50.0684 2.08398 48.2812 0.302734 46.0898 0.302734H4.72266C2.52539 0.302734 0.744141 2.08984 0.744141 4.28125V30.1035C0.744141 32.3008 2.53125 34.082 4.72266 34.082H37.3711V37.082C37.3711 37.3633 37.3711 38.2129 37.9512 38.9805C38.5898 39.8242 39.6563 40.252 41.127 40.252H59.1855V39.1152C59.1855 35.9746 56.6309 33.4199 53.4902 33.4199ZM4.72266 31.8145C3.7793 31.8145 3.01758 31.0469 3.01758 30.1094V4.28125C3.01758 3.33789 3.78516 2.57617 4.72266 2.57617H46.084C47.0273 2.57617 47.7891 3.34375 47.7891 4.28125V30.1035C47.7891 31.0469 47.0215 31.8086 46.084 31.8086H4.72266V31.8145ZM53.4902 37.9785H50.2617C50.7305 36.6484 52.002 35.6934 53.4902 35.6934C54.9785 35.6934 56.25 36.6484 56.7187 37.9785H53.4902Z" fill="#005BFF"/>
<path d="M39.3047 9.80078H27.0234C26.707 9.80078 26.4551 10.0527 26.4551 10.3691C26.4551 10.6855 26.707 10.9375 27.0234 10.9375H39.3105C39.627 10.9375 39.8789 10.6855 39.8789 10.3691C39.8789 10.0527 39.6211 9.80078 39.3047 9.80078Z" fill="#005BFF"/>
<path d="M39.3047 14.0957H27.0234C26.707 14.0957 26.4551 14.3477 26.4551 14.6641C26.4551 14.9805 26.707 15.2324 27.0234 15.2324H39.3105C39.627 15.2324 39.8789 14.9805 39.8789 14.6641C39.8789 14.3477 39.6211 14.0957 39.3047 14.0957ZM39.3047 18.3965H30.7734C30.457 18.3965 30.2051 18.6484 30.2051 18.9648C30.2051 19.2812 30.457 19.5332 30.7734 19.5332H39.3047C39.6211 19.5332 39.873 19.2812 39.873 18.9648C39.873 18.6484 39.6211 18.3965 39.3047 18.3965Z" fill="#06F3FF"/>
<path d="M39.3047 22.6914H31.0605C30.7441 22.6914 30.4922 22.9434 30.4922 23.2598C30.4922 23.5762 30.7441 23.8281 31.0605 23.8281H39.3047C39.6211 23.8281 39.873 23.5762 39.873 23.2598C39.873 22.9434 39.6211 22.6914 39.3047 22.6914Z" fill="#005BFF"/>
</svg>
